<svg width="32" height="47" viewBox="0 0 32 47" fill="none" xmlns="http://www.w3.org/2000/svg">
<path d="M17.5 8C17.5 7.17157 16.8284 6.5 16 6.5C15.1716 6.5 14.5 7.17157 14.5 8L17.5 8ZM14.9393 42.0607C15.5251 42.6464 16.4749 42.6464 17.0607 42.0607L26.6066 32.5147C27.1924 31.9289 27.1924 30.9792 26.6066 30.3934C26.0208 29.8076 25.0711 29.8076 24.4853 30.3934L16 38.8787L7.51472 30.3934C6.92893 29.8076 5.97918 29.8076 5.3934 30.3934C4.80761 30.9792 4.80761 31.9289 5.3934 32.5147L14.9393 42.0607ZM14.5 8L14.5 41L17.5 41L17.5 8L14.5 8Z" fill="#1C383C"/>
</svg>
