<svg width="180" height="93" viewBox="0 0 180 93" fill="none" xmlns="http://www.w3.org/2000/svg">
<g clip-path="url(#clip0_521_401)">
<path d="M8.48996 45.25C9.99996 51 8.56996 56.92 8.29996 62.78C8.02996 68.64 9.29996 75.07 14.84 79.06C19.4 82.32 25.91 83.28 32.08 83.84C49.08 85.37 66.19 84.9 83.25 84.33C91.81 84.04 101.8 83.1 106.13 77.33C108.45 74.26 108.5 70.51 108.49 66.96C108.45 58.96 108.417 50.96 108.39 42.96C75.29 43 41.54 43.82 8.48996 45.25Z" fill="#D9D9D9" stroke="#1B383C" stroke-width="2" stroke-miterlimit="10"/>
<path d="M144.31 1H135.6C132.739 1 130.42 3.31916 130.42 6.18V86.42C130.42 89.2808 132.739 91.6 135.6 91.6H144.31C147.171 91.6 149.49 89.2808 149.49 86.42V6.18C149.49 3.31916 147.171 1 144.31 1Z" fill="#D9D9D9" stroke="#1B383C" stroke-width="2" stroke-miterlimit="10"/>
<path d="M172.92 46.3H164.21C161.349 46.3 159.03 48.6192 159.03 51.48V86.42C159.03 89.2809 161.349 91.6 164.21 91.6H172.92C175.781 91.6 178.1 89.2809 178.1 86.42V51.48C178.1 48.6192 175.781 46.3 172.92 46.3Z" fill="#FF9820" stroke="#1B383C" stroke-width="2" stroke-miterlimit="10"/>
<path d="M144.55 14.65C150.37 12.65 157.16 10.78 162.34 14.1C165.43 16.1 167.23 19.54 168.4 23.02C169.668 26.8169 170.343 30.7871 170.4 34.79" stroke="#1B383C" stroke-width="2" stroke-miterlimit="10" stroke-linecap="round"/>
<path d="M165.26 31C167.291 31.5077 169.1 32.6668 170.41 34.3C171.75 32.84 173.02 31.3 174.21 29.75" stroke="#1B383C" stroke-width="2" stroke-miterlimit="10" stroke-linecap="round"/>
<path d="M59.7101 65.5C60.0814 66.732 60.8744 67.794 61.9501 68.5C63.5501 69.34 65.5201 68.62 66.9501 67.5C70.6201 64.5 71.7101 59.09 71.1601 54.26C71.1277 53.6414 70.9605 53.0373 70.6701 52.49C68.8101 49.49 63.2601 49.82 61.2301 52.2C58.3101 55.53 58.1701 61.51 59.7101 65.5Z" fill="white" stroke="#1B383C" stroke-width="2" stroke-miterlimit="10" stroke-linecap="round"/>
<path d="M62.9998 59C62.8477 60.438 63.1446 61.8877 63.8498 63.15C64.1943 63.7549 64.7348 64.2243 65.382 64.4807C66.0292 64.737 66.7445 64.765 67.4098 64.56C68.7598 64 69.3298 62.36 69.7498 60.9C70.4298 58.52 72.1298 53.79 68.8798 52.59C65.1498 51.22 63.0998 56.05 62.9998 59Z" fill="#1B383C" stroke="#1B383C" stroke-width="2" stroke-miterlimit="10"/>
<path d="M78.5302 54.4099C77.1302 56.9999 77.0902 60.0899 77.3202 62.9999C77.3357 64.2275 77.6516 65.4326 78.2402 66.5099C78.8612 67.3495 79.7395 67.963 80.7414 68.2573C81.7433 68.5515 82.8139 68.5103 83.7902 68.1399C84.7581 67.7415 85.6348 67.1504 86.3671 66.4026C87.0995 65.6548 87.6721 64.7659 88.0502 63.7899C88.7986 61.8229 89.2371 59.7515 89.3502 57.6499C89.6281 56.1252 89.5075 54.5545 89.0002 53.0899C86.8902 48.4999 80.3302 51.0599 78.5302 54.4099Z" fill="white" stroke="#1B383C" stroke-width="2" stroke-miterlimit="10" stroke-linecap="round"/>
<path d="M82.4199 57.1301C81.8771 58.4827 81.824 59.9825 82.2699 61.3701C82.5035 62.0522 82.9529 62.6398 83.5501 63.0439C84.1473 63.4481 84.8598 63.6468 85.5799 63.6101C86.0902 63.5154 86.5727 63.3072 86.9916 63.0008C87.4105 62.6944 87.7551 62.2977 87.9999 61.8401C88.4767 60.9039 88.7719 59.886 88.8699 58.8401C88.9915 57.9981 89.0683 57.1502 89.0999 56.3001C89.3199 50.5501 83.5899 53.7501 82.4199 57.1301Z" fill="#1B383C" stroke="#1B383C" stroke-width="2" stroke-miterlimit="10"/>
<path d="M52.11 72.23C52.0463 73.2407 52.2629 74.2494 52.736 75.1449C53.209 76.0404 53.9201 76.7879 54.7909 77.305C55.6617 77.8221 56.6584 78.0887 57.671 78.0755C58.6837 78.0623 59.673 77.7697 60.53 77.23" stroke="#1B383C" stroke-width="2" stroke-miterlimit="10"/>
<path d="M114.26 41C112.98 42.23 111 42.29 109.26 42.27C105.26 42.27 101.26 42.46 97.26 42.32C71.7 41.44 46.12 43.07 20.62 45.14C14.39 45.64 7.92 46.14 2.05 44C0.209999 42.31 1.19 39 3.28 37.61C5.37 36.22 8 36.28 10.47 36.32C16.17 36.41 21.87 36.41 27.57 36.39C26.92 34.85 27.2 32.98 27.21 30.79C27.1481 30.2291 27.2901 29.6648 27.61 29.2C27.8483 28.9967 28.1254 28.844 28.4245 28.7512C28.7236 28.6583 29.0385 28.6273 29.35 28.66C36.45 28.44 43.56 28.66 50.66 28.82L71.81 29.4L87.27 29.81C88.7231 29.7585 90.1725 29.9859 91.54 30.48C92.1191 30.7033 92.6408 31.0538 93.0665 31.5055C93.4923 31.9572 93.8112 32.4986 94 33.09C97.6 32.8833 101.18 32.7133 104.74 32.58C107.52 32.48 110.5 32.44 112.84 33.93C115.18 35.42 116.27 39.1 114.26 41Z" fill="#FF9820" stroke="#1B383C" stroke-width="2" stroke-miterlimit="10"/>
<path d="M36.3901 36.73C41.7235 36.6233 47.0568 36.3666 52.3901 35.96" stroke="#1B383C" stroke-width="2" stroke-miterlimit="10"/>
</g>
<defs>
<clipPath id="clip0_521_401">
<rect width="179.1" height="92.6" fill="white"/>
</clipPath>
</defs>
</svg>
