<svg width="355" height="356" viewBox="0 0 355 356" fill="none" xmlns="http://www.w3.org/2000/svg">
<g filter="url(#filter0_d_521_324)">
<rect x="4" width="347" height="348" rx="3" fill="white"/>
</g>
<mask id="path-2-inside-1_521_324" fill="white">
<path d="M296 201C296 266.17 243.17 319 178 319C112.83 319 60 266.17 60 201C60 135.83 112.83 83 178 83C243.17 83 296 135.83 296 201Z"/>
</mask>
<path d="M275 201C275 254.572 231.572 298 178 298V340C254.768 340 317 277.768 317 201H275ZM178 298C124.428 298 81 254.572 81 201H39C39 277.768 101.232 340 178 340V298ZM81 201C81 147.428 124.428 104 178 104V62C101.232 62 39 124.232 39 201H81ZM178 104C231.572 104 275 147.428 275 201H317C317 124.232 254.768 62 178 62V104Z" fill="#1C383C" mask="url(#path-2-inside-1_521_324)"/>
<mask id="mask0_521_324" style="mask-type:alpha" maskUnits="userSpaceOnUse" x="60" y="83" width="236" height="236">
<mask id="path-4-inside-2_521_324" fill="white">
<path d="M296 201C296 266.17 243.17 319 178 319C112.83 319 60 266.17 60 201C60 135.83 112.83 83 178 83C243.17 83 296 135.83 296 201Z"/>
</mask>
<path d="M275 201C275 254.572 231.572 298 178 298V340C254.768 340 317 277.768 317 201H275ZM178 298C124.428 298 81 254.572 81 201H39C39 277.768 101.232 340 178 340V298ZM81 201C81 147.428 124.428 104 178 104V62C101.232 62 39 124.232 39 201H81ZM178 104C231.572 104 275 147.428 275 201H317C317 124.232 254.768 62 178 62V104Z" fill="#1C383C" mask="url(#path-4-inside-2_521_324)"/>
</mask>
<g mask="url(#mask0_521_324)">
<path d="M248.099 317.248L225.316 274.02L240.505 255.911L277.307 276.941L248.099 317.248Z" fill="#FF9820"/>
</g>
<path d="M120.782 153C120.982 152.832 121.21 152.63 121.466 152.394C121.726 152.158 121.988 151.89 122.252 151.59C122.52 151.286 122.77 150.958 123.002 150.606C123.234 150.25 123.426 149.872 123.578 149.472C123.73 149.068 123.818 148.646 123.842 148.206L123.902 148.194C123.834 148.442 123.75 148.678 123.65 148.902C123.55 149.122 123.424 149.318 123.272 149.49C123.124 149.658 122.938 149.79 122.714 149.886C122.49 149.982 122.216 150.03 121.892 150.03C121.4 150.03 120.958 149.906 120.566 149.658C120.178 149.41 119.87 149.064 119.642 148.62C119.418 148.176 119.306 147.664 119.306 147.084C119.306 146.62 119.382 146.204 119.534 145.836C119.69 145.468 119.904 145.156 120.176 144.9C120.448 144.64 120.762 144.442 121.118 144.306C121.474 144.17 121.854 144.102 122.258 144.102C122.814 144.102 123.316 144.232 123.764 144.492C124.216 144.748 124.574 145.142 124.838 145.674C125.102 146.202 125.234 146.876 125.234 147.696C125.234 148.376 125.148 149.002 124.976 149.574C124.804 150.146 124.586 150.656 124.322 151.104C124.062 151.552 123.794 151.936 123.518 152.256C123.242 152.572 123.002 152.82 122.798 153H120.782ZM122.216 148.818C122.456 148.818 122.672 148.786 122.864 148.722C123.056 148.658 123.226 148.566 123.374 148.446C123.522 148.322 123.648 148.174 123.752 148.002C123.772 147.966 123.782 147.886 123.782 147.762C123.786 147.638 123.788 147.512 123.788 147.384C123.788 147.032 123.732 146.704 123.62 146.4C123.512 146.096 123.344 145.848 123.116 145.656C122.892 145.464 122.604 145.368 122.252 145.368C121.952 145.368 121.686 145.44 121.454 145.584C121.226 145.724 121.048 145.922 120.92 146.178C120.792 146.43 120.728 146.722 120.728 147.054C120.728 147.554 120.85 147.974 121.094 148.314C121.342 148.65 121.716 148.818 122.216 148.818ZM128.03 153L128.042 145.404L128.402 144.276H129.488V153H128.03ZM126.218 146.466V145.074C126.43 145.074 126.624 145.066 126.8 145.05C126.98 145.03 127.138 145 127.274 144.96C127.47 144.904 127.664 144.832 127.856 144.744C128.048 144.652 128.23 144.496 128.402 144.276L128.12 145.344C128.032 145.56 127.946 145.744 127.862 145.896C127.782 146.048 127.656 146.17 127.484 146.262C127.328 146.346 127.17 146.402 127.01 146.43C126.85 146.454 126.586 146.466 126.218 146.466ZM133.276 153L137.728 144.276H138.916L134.464 153H133.276ZM133.48 147.852C133.772 147.852 134.008 147.742 134.188 147.522C134.368 147.298 134.458 146.952 134.458 146.484C134.458 146.044 134.37 145.71 134.194 145.482C134.022 145.254 133.778 145.14 133.462 145.14C133.174 145.14 132.94 145.256 132.76 145.488C132.58 145.716 132.49 146.048 132.49 146.484C132.49 146.936 132.58 147.278 132.76 147.51C132.944 147.738 133.184 147.852 133.48 147.852ZM133.462 148.74C132.858 148.74 132.37 148.544 131.998 148.152C131.63 147.756 131.446 147.186 131.446 146.442C131.446 145.974 131.534 145.572 131.71 145.236C131.89 144.896 132.134 144.636 132.442 144.456C132.75 144.272 133.096 144.18 133.48 144.18C134.104 144.18 134.596 144.382 134.956 144.786C135.316 145.19 135.496 145.742 135.496 146.442C135.496 146.942 135.406 147.362 135.226 147.702C135.046 148.042 134.802 148.3 134.494 148.476C134.19 148.652 133.846 148.74 133.462 148.74ZM138.76 152.202C139.052 152.202 139.288 152.092 139.468 151.872C139.652 151.652 139.744 151.308 139.744 150.84C139.744 150.396 139.656 150.06 139.48 149.832C139.304 149.604 139.058 149.49 138.742 149.49C138.454 149.49 138.22 149.606 138.04 149.838C137.864 150.066 137.776 150.398 137.776 150.834C137.776 151.29 137.866 151.632 138.046 151.86C138.226 152.088 138.464 152.202 138.76 152.202ZM138.742 153.096C138.138 153.096 137.652 152.9 137.284 152.508C136.916 152.112 136.732 151.542 136.732 150.798C136.732 150.326 136.82 149.922 136.996 149.586C137.172 149.246 137.414 148.986 137.722 148.806C138.03 148.626 138.376 148.536 138.76 148.536C139.384 148.536 139.876 148.738 140.236 149.142C140.6 149.546 140.782 150.096 140.782 150.792C140.782 151.292 140.69 151.714 140.506 152.058C140.326 152.398 140.082 152.656 139.774 152.832C139.47 153.008 139.126 153.096 138.742 153.096ZM146.097 153L143.865 144.276H145.419L146.283 148.422L146.955 151.806H147.015L147.651 148.422L148.509 144.276H150.165L151.029 148.422L151.665 151.806H151.725L152.445 148.422L153.357 144.276H154.917L152.577 153H150.729L149.721 148.476L149.355 146.292H149.325L148.953 148.476L147.951 153H146.097ZM157.198 153.072C156.798 153.072 156.444 152.998 156.136 152.85C155.828 152.698 155.586 152.488 155.41 152.22C155.238 151.952 155.152 151.642 155.152 151.29C155.152 150.902 155.222 150.582 155.362 150.33C155.502 150.078 155.704 149.878 155.968 149.73C156.236 149.578 156.55 149.462 156.91 149.382C157.166 149.326 157.436 149.28 157.72 149.244C158.008 149.208 158.274 149.18 158.518 149.16C158.762 149.136 158.95 149.12 159.082 149.112V148.848C159.082 148.404 158.992 148.072 158.812 147.852C158.636 147.628 158.336 147.516 157.912 147.516C157.64 147.516 157.412 147.55 157.228 147.618C157.044 147.682 156.904 147.806 156.808 147.99C156.716 148.17 156.666 148.434 156.658 148.782H155.368C155.324 148.218 155.404 147.756 155.608 147.396C155.816 147.032 156.124 146.764 156.532 146.592C156.944 146.416 157.43 146.328 157.99 146.328C158.322 146.328 158.634 146.366 158.926 146.442C159.222 146.514 159.484 146.64 159.712 146.82C159.94 146.996 160.12 147.238 160.252 147.546C160.384 147.854 160.45 148.244 160.45 148.716V153H159.064L159.082 151.53C159.006 151.974 158.814 152.342 158.506 152.634C158.198 152.926 157.762 153.072 157.198 153.072ZM157.576 152.004C157.784 152.004 157.994 151.968 158.206 151.896C158.422 151.824 158.61 151.72 158.77 151.584C158.934 151.448 159.038 151.288 159.082 151.104V149.904C158.922 149.92 158.732 149.948 158.512 149.988C158.296 150.028 158.11 150.064 157.954 150.096C157.506 150.188 157.182 150.31 156.982 150.462C156.786 150.61 156.688 150.838 156.688 151.146C156.688 151.322 156.728 151.476 156.808 151.608C156.892 151.736 157.002 151.834 157.138 151.902C157.274 151.97 157.42 152.004 157.576 152.004ZM164.302 153.102C163.81 153.102 163.37 153.03 162.982 152.886C162.598 152.742 162.292 152.52 162.064 152.22C161.84 151.916 161.716 151.528 161.692 151.056H163.06C163.112 151.392 163.246 151.63 163.462 151.77C163.682 151.91 163.952 151.98 164.271 151.98C164.504 151.98 164.71 151.958 164.89 151.914C165.074 151.866 165.218 151.788 165.322 151.68C165.43 151.568 165.484 151.418 165.484 151.23C165.484 151.098 165.454 150.99 165.394 150.906C165.338 150.818 165.25 150.742 165.13 150.678C165.014 150.614 164.866 150.554 164.686 150.498C164.51 150.442 164.306 150.38 164.074 150.312C163.658 150.192 163.28 150.05 162.94 149.886C162.6 149.722 162.33 149.508 162.13 149.244C161.93 148.976 161.83 148.628 161.83 148.2C161.83 147.616 162.046 147.16 162.478 146.832C162.91 146.5 163.466 146.334 164.146 146.334C164.586 146.334 164.982 146.398 165.334 146.526C165.69 146.65 165.982 146.858 166.21 147.15C166.438 147.438 166.586 147.83 166.654 148.326L165.286 148.32C165.226 148.088 165.138 147.91 165.022 147.786C164.906 147.658 164.772 147.57 164.62 147.522C164.472 147.47 164.31 147.444 164.134 147.444C163.942 147.444 163.776 147.474 163.636 147.534C163.496 147.594 163.388 147.678 163.312 147.786C163.236 147.894 163.198 148.024 163.198 148.176C163.198 148.352 163.248 148.5 163.348 148.62C163.452 148.736 163.606 148.838 163.81 148.926C164.018 149.01 164.276 149.098 164.584 149.19C164.832 149.262 165.088 149.342 165.352 149.43C165.616 149.514 165.862 149.622 166.09 149.754C166.318 149.886 166.502 150.062 166.642 150.282C166.782 150.498 166.852 150.78 166.852 151.128C166.852 151.748 166.618 152.232 166.15 152.58C165.686 152.928 165.07 153.102 164.302 153.102ZM170.127 153.096C169.607 153.096 169.201 152.964 168.909 152.7C168.621 152.432 168.477 152.05 168.477 151.554V148.242C168.477 148.11 168.505 147.992 168.561 147.888C168.617 147.78 168.699 147.712 168.807 147.684L168.477 146.712V146.538L168.795 144.576H169.875V151.2C169.875 151.432 169.925 151.594 170.025 151.686C170.129 151.778 170.321 151.824 170.601 151.824C170.781 151.824 170.947 151.824 171.099 151.824C171.251 151.82 171.389 151.816 171.513 151.812V153.018C171.305 153.054 171.077 153.076 170.829 153.084C170.581 153.092 170.347 153.096 170.127 153.096ZM167.619 147.684V146.448H171.525V147.684H167.619ZM175.356 153.09C174.724 153.09 174.176 152.962 173.712 152.706C173.252 152.446 172.898 152.064 172.65 151.56C172.402 151.056 172.278 150.438 172.278 149.706C172.278 148.994 172.408 148.386 172.668 147.882C172.932 147.374 173.294 146.988 173.754 146.724C174.214 146.456 174.742 146.322 175.338 146.322C175.926 146.322 176.428 146.438 176.844 146.67C177.264 146.902 177.584 147.246 177.804 147.702C178.024 148.154 178.134 148.71 178.134 149.37C178.134 149.498 178.13 149.604 178.122 149.688C178.118 149.772 178.112 149.872 178.104 149.988H173.688C173.724 150.656 173.888 151.148 174.18 151.464C174.472 151.776 174.83 151.932 175.254 151.932C175.65 151.932 175.952 151.848 176.16 151.68C176.372 151.508 176.508 151.316 176.568 151.104H177.936C177.9 151.524 177.768 151.884 177.54 152.184C177.312 152.48 177.01 152.706 176.634 152.862C176.262 153.014 175.836 153.09 175.356 153.09ZM174.336 149.022H176.724C176.712 148.542 176.596 148.172 176.376 147.912C176.156 147.648 175.794 147.516 175.29 147.516C174.766 147.516 174.376 147.692 174.12 148.044C173.864 148.392 173.72 148.874 173.688 149.49C173.72 149.31 173.788 149.188 173.892 149.124C173.996 149.056 174.144 149.022 174.336 149.022Z" fill="black"/>
<path d="M104.31 49.18C103.35 49.18 102.519 49.027 101.817 48.721C101.115 48.415 100.569 47.956 100.179 47.344C99.789 46.726 99.585 45.952 99.567 45.022H101.619C101.643 45.526 101.766 45.949 101.988 46.291C102.216 46.633 102.534 46.888 102.942 47.056C103.356 47.224 103.854 47.308 104.436 47.308C104.994 47.308 105.45 47.242 105.804 47.11C106.158 46.978 106.419 46.792 106.587 46.552C106.755 46.306 106.839 46.018 106.839 45.688C106.839 45.328 106.737 45.025 106.533 44.779C106.329 44.527 106.005 44.293 105.561 44.077C105.123 43.855 104.541 43.618 103.815 43.366C103.065 43.108 102.408 42.793 101.844 42.421C101.286 42.049 100.851 41.608 100.539 41.098C100.233 40.582 100.08 39.979 100.08 39.289C100.08 38.125 100.461 37.237 101.223 36.625C101.985 36.013 103.029 35.707 104.355 35.707C105.273 35.707 106.017 35.848 106.587 36.13C107.157 36.412 107.586 36.829 107.874 37.381C108.168 37.927 108.363 38.605 108.459 39.415H106.398C106.344 39.001 106.233 38.659 106.065 38.389C105.897 38.119 105.666 37.918 105.372 37.786C105.084 37.648 104.721 37.579 104.283 37.579C103.605 37.579 103.083 37.717 102.717 37.993C102.351 38.263 102.168 38.668 102.168 39.208C102.168 39.514 102.225 39.793 102.339 40.045C102.459 40.297 102.702 40.546 103.068 40.792C103.44 41.038 103.998 41.308 104.742 41.602C105.318 41.83 105.858 42.049 106.362 42.259C106.872 42.463 107.319 42.7 107.703 42.97C108.093 43.24 108.399 43.576 108.621 43.978C108.843 44.38 108.957 44.89 108.963 45.508C108.975 46.696 108.585 47.605 107.793 48.235C107.007 48.865 105.846 49.18 104.31 49.18ZM110.757 49V39.172H112.908L112.881 49H110.757ZM111.846 37.723C111.456 37.723 111.126 37.588 110.856 37.318C110.586 37.042 110.451 36.691 110.451 36.265C110.451 35.845 110.586 35.503 110.856 35.239C111.126 34.975 111.456 34.843 111.846 34.843C112.224 34.843 112.548 34.975 112.818 35.239C113.094 35.503 113.232 35.845 113.232 36.265C113.232 36.691 113.094 37.042 112.818 37.318C112.548 37.588 112.224 37.723 111.846 37.723ZM115.573 49V39.172H117.391L117.625 42.88L117.472 42.133C117.544 41.593 117.685 41.083 117.895 40.603C118.111 40.117 118.432 39.724 118.858 39.424C119.284 39.124 119.854 38.974 120.568 38.974C121.498 38.974 122.218 39.265 122.728 39.847C123.238 40.423 123.493 41.305 123.493 42.493V49H121.369V43.231C121.369 42.667 121.312 42.214 121.198 41.872C121.09 41.53 120.913 41.284 120.667 41.134C120.421 40.978 120.094 40.9 119.686 40.9C119.242 40.9 118.837 41.032 118.471 41.296C118.111 41.554 117.853 41.848 117.697 42.178V49H115.573ZM130.009 53.014C129.211 53.014 128.491 52.882 127.849 52.618C127.213 52.36 126.721 51.964 126.373 51.43C126.025 50.896 125.89 50.227 125.968 49.423H128.02C128.014 49.765 128.056 50.071 128.146 50.341C128.236 50.617 128.425 50.836 128.713 50.998C129.001 51.16 129.439 51.241 130.027 51.241C130.537 51.241 130.927 51.169 131.197 51.025C131.473 50.881 131.659 50.662 131.755 50.368C131.851 50.074 131.899 49.693 131.899 49.225V46.561C131.845 46.843 131.728 47.14 131.548 47.452C131.368 47.764 131.089 48.028 130.711 48.244C130.333 48.454 129.823 48.559 129.181 48.559C128.599 48.559 128.08 48.43 127.624 48.172C127.168 47.914 126.781 47.566 126.463 47.128C126.145 46.69 125.902 46.198 125.734 45.652C125.572 45.1 125.491 44.53 125.491 43.942C125.491 42.85 125.671 41.938 126.031 41.206C126.397 40.474 126.868 39.922 127.444 39.55C128.02 39.178 128.629 38.992 129.271 38.992C129.841 38.992 130.3 39.07 130.648 39.226C131.002 39.382 131.278 39.571 131.476 39.793C131.674 40.015 131.818 40.234 131.908 40.45L131.917 39.181H133.996V49.207C133.996 50.095 133.822 50.818 133.474 51.376C133.132 51.934 132.661 52.342 132.061 52.6C131.461 52.864 130.777 53.002 130.009 53.014ZM129.91 46.858C130.36 46.858 130.723 46.798 130.999 46.678C131.275 46.552 131.485 46.405 131.629 46.237C131.773 46.063 131.863 45.913 131.899 45.787V41.674C131.839 41.53 131.728 41.389 131.566 41.251C131.404 41.113 131.191 40.999 130.927 40.909C130.663 40.819 130.339 40.774 129.955 40.774C129.289 40.774 128.743 41.02 128.317 41.512C127.891 42.004 127.678 42.775 127.678 43.825C127.678 44.779 127.888 45.523 128.308 46.057C128.734 46.591 129.268 46.858 129.91 46.858ZM136.65 49V34.996H138.774V49H136.65ZM145.424 49.135C144.476 49.135 143.654 48.943 142.958 48.559C142.268 48.169 141.737 47.596 141.365 46.84C140.993 46.084 140.807 45.157 140.807 44.059C140.807 42.991 141.002 42.079 141.392 41.323C141.788 40.561 142.331 39.982 143.021 39.586C143.711 39.184 144.503 38.983 145.397 38.983C146.279 38.983 147.032 39.157 147.656 39.505C148.286 39.853 148.766 40.369 149.096 41.053C149.426 41.731 149.591 42.565 149.591 43.555C149.591 43.747 149.585 43.906 149.573 44.032C149.567 44.158 149.558 44.308 149.546 44.482H142.922C142.976 45.484 143.222 46.222 143.66 46.696C144.098 47.164 144.635 47.398 145.271 47.398C145.865 47.398 146.318 47.272 146.63 47.02C146.948 46.762 147.152 46.474 147.242 46.156H149.294C149.24 46.786 149.042 47.326 148.7 47.776C148.358 48.22 147.905 48.559 147.341 48.793C146.783 49.021 146.144 49.135 145.424 49.135ZM143.894 43.033H147.476C147.458 42.313 147.284 41.758 146.954 41.368C146.624 40.972 146.081 40.774 145.325 40.774C144.539 40.774 143.954 41.038 143.57 41.566C143.186 42.088 142.97 42.811 142.922 43.735C142.97 43.465 143.072 43.282 143.228 43.186C143.384 43.084 143.606 43.033 143.894 43.033ZM151.924 43.933V42.169H156.46L156.433 43.933H151.924ZM161.885 49.198C161.033 49.198 160.349 48.901 159.833 48.307C159.317 47.713 159.059 46.861 159.059 45.751V39.172H161.183V45.184C161.183 45.664 161.237 46.06 161.345 46.372C161.453 46.684 161.624 46.912 161.858 47.056C162.092 47.2 162.395 47.272 162.767 47.272C163.217 47.272 163.622 47.143 163.982 46.885C164.348 46.621 164.606 46.324 164.756 45.994V39.172H166.88V49H165.071L164.828 45.292L164.99 46.039C164.918 46.579 164.774 47.089 164.558 47.569C164.348 48.049 164.027 48.442 163.595 48.748C163.169 49.048 162.599 49.198 161.885 49.198ZM172.771 49.153C172.033 49.153 171.373 49.045 170.791 48.829C170.215 48.613 169.756 48.28 169.414 47.83C169.078 47.374 168.892 46.792 168.856 46.084H170.908C170.986 46.588 171.187 46.945 171.511 47.155C171.841 47.365 172.246 47.47 172.726 47.47C173.074 47.47 173.383 47.437 173.653 47.371C173.929 47.299 174.145 47.182 174.301 47.02C174.463 46.852 174.544 46.627 174.544 46.345C174.544 46.147 174.499 45.985 174.409 45.859C174.325 45.727 174.193 45.613 174.013 45.517C173.839 45.421 173.617 45.331 173.347 45.247C173.083 45.163 172.777 45.07 172.429 44.968C171.805 44.788 171.238 44.575 170.728 44.329C170.218 44.083 169.813 43.762 169.513 43.366C169.213 42.964 169.063 42.442 169.063 41.8C169.063 40.924 169.387 40.24 170.035 39.748C170.683 39.25 171.517 39.001 172.537 39.001C173.197 39.001 173.791 39.097 174.319 39.289C174.853 39.475 175.291 39.787 175.633 40.225C175.975 40.657 176.197 41.245 176.299 41.989L174.247 41.98C174.157 41.632 174.025 41.365 173.851 41.179C173.677 40.987 173.476 40.855 173.248 40.783C173.026 40.705 172.783 40.666 172.519 40.666C172.231 40.666 171.982 40.711 171.772 40.801C171.562 40.891 171.4 41.017 171.286 41.179C171.172 41.341 171.115 41.536 171.115 41.764C171.115 42.028 171.19 42.25 171.34 42.43C171.496 42.604 171.727 42.757 172.033 42.889C172.345 43.015 172.732 43.147 173.194 43.285C173.566 43.393 173.95 43.513 174.346 43.645C174.742 43.771 175.111 43.933 175.453 44.131C175.795 44.329 176.071 44.593 176.281 44.923C176.491 45.247 176.596 45.67 176.596 46.192C176.596 47.122 176.245 47.848 175.543 48.37C174.847 48.892 173.923 49.153 172.771 49.153ZM182.602 49.135C181.654 49.135 180.832 48.943 180.136 48.559C179.446 48.169 178.915 47.596 178.543 46.84C178.171 46.084 177.985 45.157 177.985 44.059C177.985 42.991 178.18 42.079 178.57 41.323C178.966 40.561 179.509 39.982 180.199 39.586C180.889 39.184 181.681 38.983 182.575 38.983C183.457 38.983 184.21 39.157 184.834 39.505C185.464 39.853 185.944 40.369 186.274 41.053C186.604 41.731 186.769 42.565 186.769 43.555C186.769 43.747 186.763 43.906 186.751 44.032C186.745 44.158 186.736 44.308 186.724 44.482H180.1C180.154 45.484 180.4 46.222 180.838 46.696C181.276 47.164 181.813 47.398 182.449 47.398C183.043 47.398 183.496 47.272 183.808 47.02C184.126 46.762 184.33 46.474 184.42 46.156H186.472C186.418 46.786 186.22 47.326 185.878 47.776C185.536 48.22 185.083 48.559 184.519 48.793C183.961 49.021 183.322 49.135 182.602 49.135ZM181.072 43.033H184.654C184.636 42.313 184.462 41.758 184.132 41.368C183.802 40.972 183.259 40.774 182.503 40.774C181.717 40.774 181.132 41.038 180.748 41.566C180.364 42.088 180.148 42.811 180.1 43.735C180.148 43.465 180.25 43.282 180.406 43.186C180.562 43.084 180.784 43.033 181.072 43.033ZM196.614 49.108C195.966 49.108 195.45 49 195.066 48.784C194.682 48.568 194.4 48.316 194.22 48.028C194.04 47.734 193.926 47.476 193.878 47.254L193.158 47.29L193.995 46.579C194.037 46.729 194.13 46.876 194.274 47.02C194.418 47.158 194.628 47.272 194.904 47.362C195.18 47.446 195.519 47.488 195.921 47.488C196.593 47.488 197.145 47.227 197.577 46.705C198.015 46.183 198.234 45.31 198.234 44.086C198.234 43.03 198.03 42.22 197.622 41.656C197.214 41.086 196.692 40.801 196.056 40.801C195.606 40.801 195.234 40.864 194.94 40.99C194.652 41.116 194.433 41.263 194.283 41.431C194.133 41.599 194.037 41.749 193.995 41.881V41.206C194.007 41.008 194.058 40.786 194.148 40.54C194.244 40.288 194.397 40.045 194.607 39.811C194.823 39.571 195.105 39.376 195.453 39.226C195.807 39.07 196.245 38.992 196.767 38.992C197.559 38.992 198.225 39.205 198.765 39.631C199.305 40.057 199.713 40.642 199.989 41.386C200.271 42.124 200.412 42.964 200.412 43.906C200.412 44.776 200.304 45.538 200.088 46.192C199.878 46.84 199.59 47.38 199.224 47.812C198.864 48.244 198.459 48.568 198.009 48.784C197.559 49 197.094 49.108 196.614 49.108ZM191.88 52.627V39.172H193.968L193.995 40.531V46.66L193.878 47.254L193.995 49.009V52.627H191.88ZM202.462 49V34.996H204.586V49H202.462ZM209.752 49.108C209.152 49.108 208.621 48.997 208.159 48.775C207.697 48.547 207.334 48.232 207.07 47.83C206.812 47.428 206.683 46.963 206.683 46.435C206.683 45.853 206.788 45.373 206.998 44.995C207.208 44.617 207.511 44.317 207.907 44.095C208.309 43.867 208.78 43.693 209.32 43.573C209.704 43.489 210.109 43.42 210.535 43.366C210.967 43.312 211.366 43.27 211.732 43.24C212.098 43.204 212.38 43.18 212.578 43.168V42.772C212.578 42.106 212.443 41.608 212.173 41.278C211.909 40.942 211.459 40.774 210.823 40.774C210.415 40.774 210.073 40.825 209.797 40.927C209.521 41.023 209.311 41.209 209.167 41.485C209.029 41.755 208.954 42.151 208.942 42.673H207.007C206.941 41.827 207.061 41.134 207.367 40.594C207.679 40.048 208.141 39.646 208.753 39.388C209.371 39.124 210.1 38.992 210.94 38.992C211.438 38.992 211.906 39.049 212.344 39.163C212.788 39.271 213.181 39.46 213.523 39.73C213.865 39.994 214.135 40.357 214.333 40.819C214.531 41.281 214.63 41.866 214.63 42.574V49H212.551L212.578 46.795C212.464 47.461 212.176 48.013 211.714 48.451C211.252 48.889 210.598 49.108 209.752 49.108ZM210.319 47.506C210.631 47.506 210.946 47.452 211.264 47.344C211.588 47.236 211.87 47.08 212.11 46.876C212.356 46.672 212.512 46.432 212.578 46.156V44.356C212.338 44.38 212.053 44.422 211.723 44.482C211.399 44.542 211.12 44.596 210.886 44.644C210.214 44.782 209.728 44.965 209.428 45.193C209.134 45.415 208.987 45.757 208.987 46.219C208.987 46.483 209.047 46.714 209.167 46.912C209.293 47.104 209.458 47.251 209.662 47.353C209.866 47.455 210.085 47.506 210.319 47.506ZM220.407 49.153C219.669 49.153 219.009 49.045 218.427 48.829C217.851 48.613 217.392 48.28 217.05 47.83C216.714 47.374 216.528 46.792 216.492 46.084H218.544C218.622 46.588 218.823 46.945 219.147 47.155C219.477 47.365 219.882 47.47 220.362 47.47C220.71 47.47 221.019 47.437 221.289 47.371C221.565 47.299 221.781 47.182 221.937 47.02C222.099 46.852 222.18 46.627 222.18 46.345C222.18 46.147 222.135 45.985 222.045 45.859C221.961 45.727 221.829 45.613 221.649 45.517C221.475 45.421 221.253 45.331 220.983 45.247C220.719 45.163 220.413 45.07 220.065 44.968C219.441 44.788 218.874 44.575 218.364 44.329C217.854 44.083 217.449 43.762 217.149 43.366C216.849 42.964 216.699 42.442 216.699 41.8C216.699 40.924 217.023 40.24 217.671 39.748C218.319 39.25 219.153 39.001 220.173 39.001C220.833 39.001 221.427 39.097 221.955 39.289C222.489 39.475 222.927 39.787 223.269 40.225C223.611 40.657 223.833 41.245 223.935 41.989L221.883 41.98C221.793 41.632 221.661 41.365 221.487 41.179C221.313 40.987 221.112 40.855 220.884 40.783C220.662 40.705 220.419 40.666 220.155 40.666C219.867 40.666 219.618 40.711 219.408 40.801C219.198 40.891 219.036 41.017 218.922 41.179C218.808 41.341 218.751 41.536 218.751 41.764C218.751 42.028 218.826 42.25 218.976 42.43C219.132 42.604 219.363 42.757 219.669 42.889C219.981 43.015 220.368 43.147 220.83 43.285C221.202 43.393 221.586 43.513 221.982 43.645C222.378 43.771 222.747 43.933 223.089 44.131C223.431 44.329 223.707 44.593 223.917 44.923C224.127 45.247 224.232 45.67 224.232 46.192C224.232 47.122 223.881 47.848 223.179 48.37C222.483 48.892 221.559 49.153 220.407 49.153ZM229.145 49.144C228.365 49.144 227.756 48.946 227.318 48.55C226.886 48.148 226.67 47.575 226.67 46.831V41.863C226.67 41.665 226.712 41.488 226.796 41.332C226.88 41.17 227.003 41.068 227.165 41.026L226.67 39.568V39.307L227.147 36.364H228.767V46.3C228.767 46.648 228.842 46.891 228.992 47.029C229.148 47.167 229.436 47.236 229.856 47.236C230.126 47.236 230.375 47.236 230.603 47.236C230.831 47.23 231.038 47.224 231.224 47.218V49.027C230.912 49.081 230.57 49.114 230.198 49.126C229.826 49.138 229.475 49.144 229.145 49.144ZM225.383 41.026V39.172H231.242V41.026H225.383ZM233.241 49V39.172H235.392L235.365 49H233.241ZM234.33 37.723C233.94 37.723 233.61 37.588 233.34 37.318C233.07 37.042 232.935 36.691 232.935 36.265C232.935 35.845 233.07 35.503 233.34 35.239C233.61 34.975 233.94 34.843 234.33 34.843C234.708 34.843 235.032 34.975 235.302 35.239C235.578 35.503 235.716 35.845 235.716 36.265C235.716 36.691 235.578 37.042 235.302 37.318C235.032 37.588 234.708 37.723 234.33 37.723ZM242.062 49.171C241.09 49.171 240.256 48.958 239.56 48.532C238.864 48.1 238.33 47.5 237.958 46.732C237.592 45.964 237.409 45.073 237.409 44.059C237.409 42.991 237.598 42.079 237.976 41.323C238.354 40.567 238.879 39.991 239.551 39.595C240.223 39.193 240.997 38.992 241.873 38.992C242.743 38.992 243.472 39.154 244.06 39.478C244.654 39.796 245.098 40.225 245.392 40.765C245.686 41.299 245.821 41.896 245.797 42.556H243.754C243.748 42.292 243.706 42.052 243.628 41.836C243.55 41.614 243.433 41.428 243.277 41.278C243.127 41.122 242.935 41.002 242.701 40.918C242.467 40.834 242.194 40.792 241.882 40.792C241.042 40.786 240.445 41.074 240.091 41.656C239.743 42.238 239.569 43.024 239.569 44.014C239.569 45.142 239.779 45.985 240.199 46.543C240.625 47.095 241.288 47.374 242.188 47.38C242.398 47.38 242.626 47.32 242.872 47.2C243.124 47.074 243.337 46.897 243.511 46.669C243.691 46.435 243.778 46.156 243.772 45.832H245.797C245.821 46.522 245.656 47.116 245.302 47.614C244.954 48.112 244.492 48.496 243.916 48.766C243.34 49.036 242.722 49.171 242.062 49.171ZM251.064 49.153C250.326 49.153 249.666 49.045 249.084 48.829C248.508 48.613 248.049 48.28 247.707 47.83C247.371 47.374 247.185 46.792 247.149 46.084H249.201C249.279 46.588 249.48 46.945 249.804 47.155C250.134 47.365 250.539 47.47 251.019 47.47C251.367 47.47 251.676 47.437 251.946 47.371C252.222 47.299 252.438 47.182 252.594 47.02C252.756 46.852 252.837 46.627 252.837 46.345C252.837 46.147 252.792 45.985 252.702 45.859C252.618 45.727 252.486 45.613 252.306 45.517C252.132 45.421 251.91 45.331 251.64 45.247C251.376 45.163 251.07 45.07 250.722 44.968C250.098 44.788 249.531 44.575 249.021 44.329C248.511 44.083 248.106 43.762 247.806 43.366C247.506 42.964 247.356 42.442 247.356 41.8C247.356 40.924 247.68 40.24 248.328 39.748C248.976 39.25 249.81 39.001 250.83 39.001C251.49 39.001 252.084 39.097 252.612 39.289C253.146 39.475 253.584 39.787 253.926 40.225C254.268 40.657 254.49 41.245 254.592 41.989L252.54 41.98C252.45 41.632 252.318 41.365 252.144 41.179C251.97 40.987 251.769 40.855 251.541 40.783C251.319 40.705 251.076 40.666 250.812 40.666C250.524 40.666 250.275 40.711 250.065 40.801C249.855 40.891 249.693 41.017 249.579 41.179C249.465 41.341 249.408 41.536 249.408 41.764C249.408 42.028 249.483 42.25 249.633 42.43C249.789 42.604 250.02 42.757 250.326 42.889C250.638 43.015 251.025 43.147 251.487 43.285C251.859 43.393 252.243 43.513 252.639 43.645C253.035 43.771 253.404 43.933 253.746 44.131C254.088 44.329 254.364 44.593 254.574 44.923C254.784 45.247 254.889 45.67 254.889 46.192C254.889 47.122 254.538 47.848 253.836 48.37C253.14 48.892 252.216 49.153 251.064 49.153Z" fill="black"/>
<path d="M149.782 258C149.982 257.832 150.21 257.63 150.466 257.394C150.726 257.158 150.988 256.89 151.252 256.59C151.52 256.286 151.77 255.958 152.002 255.606C152.234 255.25 152.426 254.872 152.578 254.472C152.73 254.068 152.818 253.646 152.842 253.206L152.902 253.194C152.834 253.442 152.75 253.678 152.65 253.902C152.55 254.122 152.424 254.318 152.272 254.49C152.124 254.658 151.938 254.79 151.714 254.886C151.49 254.982 151.216 255.03 150.892 255.03C150.4 255.03 149.958 254.906 149.566 254.658C149.178 254.41 148.87 254.064 148.642 253.62C148.418 253.176 148.306 252.664 148.306 252.084C148.306 251.62 148.382 251.204 148.534 250.836C148.69 250.468 148.904 250.156 149.176 249.9C149.448 249.64 149.762 249.442 150.118 249.306C150.474 249.17 150.854 249.102 151.258 249.102C151.814 249.102 152.316 249.232 152.764 249.492C153.216 249.748 153.574 250.142 153.838 250.674C154.102 251.202 154.234 251.876 154.234 252.696C154.234 253.376 154.148 254.002 153.976 254.574C153.804 255.146 153.586 255.656 153.322 256.104C153.062 256.552 152.794 256.936 152.518 257.256C152.242 257.572 152.002 257.82 151.798 258H149.782ZM151.216 253.818C151.456 253.818 151.672 253.786 151.864 253.722C152.056 253.658 152.226 253.566 152.374 253.446C152.522 253.322 152.648 253.174 152.752 253.002C152.772 252.966 152.782 252.886 152.782 252.762C152.786 252.638 152.788 252.512 152.788 252.384C152.788 252.032 152.732 251.704 152.62 251.4C152.512 251.096 152.344 250.848 152.116 250.656C151.892 250.464 151.604 250.368 151.252 250.368C150.952 250.368 150.686 250.44 150.454 250.584C150.226 250.724 150.048 250.922 149.92 251.178C149.792 251.43 149.728 251.722 149.728 252.054C149.728 252.554 149.85 252.974 150.094 253.314C150.342 253.65 150.716 253.818 151.216 253.818ZM157.342 258L161.794 249.276H162.982L158.53 258H157.342ZM157.546 252.852C157.838 252.852 158.074 252.742 158.254 252.522C158.434 252.298 158.524 251.952 158.524 251.484C158.524 251.044 158.436 250.71 158.26 250.482C158.088 250.254 157.844 250.14 157.528 250.14C157.24 250.14 157.006 250.256 156.826 250.488C156.646 250.716 156.556 251.048 156.556 251.484C156.556 251.936 156.646 252.278 156.826 252.51C157.01 252.738 157.25 252.852 157.546 252.852ZM157.528 253.74C156.924 253.74 156.436 253.544 156.064 253.152C155.696 252.756 155.512 252.186 155.512 251.442C155.512 250.974 155.6 250.572 155.776 250.236C155.956 249.896 156.2 249.636 156.508 249.456C156.816 249.272 157.162 249.18 157.546 249.18C158.17 249.18 158.662 249.382 159.022 249.786C159.382 250.19 159.562 250.742 159.562 251.442C159.562 251.942 159.472 252.362 159.292 252.702C159.112 253.042 158.868 253.3 158.56 253.476C158.256 253.652 157.912 253.74 157.528 253.74ZM162.826 257.202C163.118 257.202 163.354 257.092 163.534 256.872C163.718 256.652 163.81 256.308 163.81 255.84C163.81 255.396 163.722 255.06 163.546 254.832C163.37 254.604 163.124 254.49 162.808 254.49C162.52 254.49 162.286 254.606 162.106 254.838C161.93 255.066 161.842 255.398 161.842 255.834C161.842 256.29 161.932 256.632 162.112 256.86C162.292 257.088 162.53 257.202 162.826 257.202ZM162.808 258.096C162.204 258.096 161.718 257.9 161.35 257.508C160.982 257.112 160.798 256.542 160.798 255.798C160.798 255.326 160.886 254.922 161.062 254.586C161.238 254.246 161.48 253.986 161.788 253.806C162.096 253.626 162.442 253.536 162.826 253.536C163.45 253.536 163.942 253.738 164.302 254.142C164.666 254.546 164.848 255.096 164.848 255.792C164.848 256.292 164.756 256.714 164.572 257.058C164.392 257.398 164.148 257.656 163.84 257.832C163.536 258.008 163.192 258.096 162.808 258.096ZM173.356 258L171.298 254.568H169.984L169.582 254.478L169.756 253.518V253.326H171.19C171.546 253.326 171.83 253.268 172.042 253.152C172.254 253.036 172.406 252.87 172.498 252.654C172.594 252.438 172.642 252.18 172.642 251.88C172.642 251.532 172.578 251.268 172.45 251.088C172.326 250.904 172.156 250.778 171.94 250.71C171.724 250.642 171.482 250.608 171.214 250.608L170.092 250.602L170.044 250.272L169.576 249.276C169.76 249.276 169.938 249.276 170.11 249.276C170.282 249.276 170.462 249.276 170.65 249.276C170.842 249.276 171.056 249.276 171.292 249.276C171.848 249.276 172.336 249.364 172.756 249.54C173.176 249.712 173.504 249.982 173.74 250.35C173.976 250.714 174.094 251.184 174.094 251.76C174.094 252.144 174.022 252.518 173.878 252.882C173.738 253.242 173.52 253.554 173.224 253.818C172.928 254.078 172.548 254.254 172.084 254.346L171.994 254.256C172.166 254.256 172.308 254.27 172.42 254.298C172.532 254.322 172.636 254.378 172.732 254.466C172.828 254.554 172.934 254.688 173.05 254.868L175.078 258H173.356ZM168.724 258V249.276H170.128V258H168.724ZM178.574 258.09C177.942 258.09 177.394 257.962 176.93 257.706C176.47 257.446 176.116 257.064 175.868 256.56C175.62 256.056 175.496 255.438 175.496 254.706C175.496 253.994 175.626 253.386 175.886 252.882C176.15 252.374 176.512 251.988 176.972 251.724C177.432 251.456 177.96 251.322 178.556 251.322C179.144 251.322 179.646 251.438 180.062 251.67C180.482 251.902 180.802 252.246 181.022 252.702C181.242 253.154 181.352 253.71 181.352 254.37C181.352 254.498 181.348 254.604 181.34 254.688C181.336 254.772 181.33 254.872 181.322 254.988H176.906C176.942 255.656 177.106 256.148 177.398 256.464C177.69 256.776 178.048 256.932 178.472 256.932C178.868 256.932 179.17 256.848 179.378 256.68C179.59 256.508 179.726 256.316 179.786 256.104H181.154C181.118 256.524 180.986 256.884 180.758 257.184C180.53 257.48 180.228 257.706 179.852 257.862C179.48 258.014 179.054 258.09 178.574 258.09ZM177.554 254.022H179.942C179.93 253.542 179.814 253.172 179.594 252.912C179.374 252.648 179.012 252.516 178.508 252.516C177.984 252.516 177.594 252.692 177.338 253.044C177.082 253.392 176.938 253.874 176.906 254.49C176.938 254.31 177.006 254.188 177.11 254.124C177.214 254.056 177.362 254.022 177.554 254.022ZM185.461 258.114C184.813 258.114 184.257 257.972 183.793 257.688C183.329 257.4 182.973 257 182.725 256.488C182.481 255.976 182.359 255.382 182.359 254.706C182.359 253.994 182.485 253.386 182.737 252.882C182.989 252.378 183.339 251.994 183.787 251.73C184.235 251.462 184.751 251.328 185.335 251.328C185.915 251.328 186.401 251.436 186.793 251.652C187.189 251.864 187.485 252.15 187.681 252.51C187.877 252.866 187.967 253.264 187.951 253.704H186.589C186.585 253.528 186.557 253.368 186.505 253.224C186.453 253.076 186.375 252.952 186.271 252.852C186.171 252.748 186.043 252.668 185.887 252.612C185.731 252.556 185.549 252.528 185.341 252.528C184.781 252.524 184.383 252.716 184.147 253.104C183.915 253.492 183.799 254.016 183.799 254.676C183.799 255.428 183.939 255.99 184.219 256.362C184.503 256.73 184.945 256.916 185.545 256.92C185.685 256.92 185.837 256.88 186.001 256.8C186.169 256.716 186.311 256.598 186.427 256.446C186.547 256.29 186.605 256.104 186.601 255.888H187.951C187.967 256.348 187.857 256.744 187.621 257.076C187.389 257.408 187.081 257.664 186.697 257.844C186.313 258.024 185.901 258.114 185.461 258.114ZM189.141 260.586V259.266H189.657C189.945 259.266 190.167 259.24 190.323 259.188C190.483 259.136 190.601 259.058 190.677 258.954C190.757 258.85 190.815 258.724 190.851 258.576C190.895 258.4 190.943 258.268 190.995 258.18C191.051 258.096 191.117 258.036 191.193 258H190.725L188.589 251.454H190.161L190.911 254.442L191.517 256.608H191.571L192.117 254.448L192.867 251.454H194.427L192.321 258C192.193 258.396 192.055 258.754 191.907 259.074C191.759 259.394 191.587 259.666 191.391 259.89C191.195 260.114 190.955 260.286 190.671 260.406C190.391 260.526 190.053 260.586 189.657 260.586H189.141ZM198.105 258.114C197.457 258.114 196.901 257.972 196.437 257.688C195.973 257.4 195.617 257 195.369 256.488C195.125 255.976 195.003 255.382 195.003 254.706C195.003 253.994 195.129 253.386 195.381 252.882C195.633 252.378 195.983 251.994 196.431 251.73C196.879 251.462 197.395 251.328 197.979 251.328C198.559 251.328 199.045 251.436 199.437 251.652C199.833 251.864 200.129 252.15 200.325 252.51C200.521 252.866 200.611 253.264 200.595 253.704H199.233C199.229 253.528 199.201 253.368 199.149 253.224C199.097 253.076 199.019 252.952 198.915 252.852C198.815 252.748 198.687 252.668 198.531 252.612C198.375 252.556 198.193 252.528 197.985 252.528C197.425 252.524 197.027 252.716 196.791 253.104C196.559 253.492 196.443 254.016 196.443 254.676C196.443 255.428 196.583 255.99 196.863 256.362C197.147 256.73 197.589 256.916 198.189 256.92C198.329 256.92 198.481 256.88 198.645 256.8C198.813 256.716 198.955 256.598 199.071 256.446C199.191 256.29 199.249 256.104 199.245 255.888H200.595C200.611 256.348 200.501 256.744 200.265 257.076C200.033 257.408 199.725 257.664 199.341 257.844C198.957 258.024 198.545 258.114 198.105 258.114ZM201.869 258V248.664H203.285V258H201.869ZM207.719 258.09C207.087 258.09 206.539 257.962 206.075 257.706C205.615 257.446 205.261 257.064 205.013 256.56C204.765 256.056 204.641 255.438 204.641 254.706C204.641 253.994 204.771 253.386 205.031 252.882C205.295 252.374 205.657 251.988 206.117 251.724C206.577 251.456 207.105 251.322 207.701 251.322C208.289 251.322 208.791 251.438 209.207 251.67C209.627 251.902 209.947 252.246 210.167 252.702C210.387 253.154 210.497 253.71 210.497 254.37C210.497 254.498 210.493 254.604 210.485 254.688C210.481 254.772 210.475 254.872 210.467 254.988H206.051C206.087 255.656 206.251 256.148 206.543 256.464C206.835 256.776 207.193 256.932 207.617 256.932C208.013 256.932 208.315 256.848 208.523 256.68C208.735 256.508 208.871 256.316 208.931 256.104H210.299C210.263 256.524 210.131 256.884 209.903 257.184C209.675 257.48 209.373 257.706 208.997 257.862C208.625 258.014 208.199 258.09 207.719 258.09ZM206.699 254.022H209.087C209.075 253.542 208.959 253.172 208.739 252.912C208.519 252.648 208.157 252.516 207.653 252.516C207.129 252.516 206.739 252.692 206.483 253.044C206.227 253.392 206.083 253.874 206.051 254.49C206.083 254.31 206.151 254.188 206.255 254.124C206.359 254.056 206.507 254.022 206.699 254.022ZM214.101 258.072C213.537 258.072 213.065 257.926 212.685 257.634C212.305 257.342 212.019 256.942 211.827 256.434C211.635 255.922 211.539 255.34 211.539 254.688C211.539 253.948 211.663 253.33 211.911 252.834C212.163 252.334 212.487 251.958 212.883 251.706C213.279 251.454 213.701 251.328 214.149 251.328C214.585 251.328 214.927 251.4 215.175 251.544C215.423 251.688 215.605 251.856 215.721 252.048C215.837 252.24 215.911 252.412 215.943 252.564L216.357 252.618L215.865 253.128C215.833 253.028 215.769 252.932 215.673 252.84C215.581 252.744 215.447 252.666 215.271 252.606C215.099 252.546 214.875 252.516 214.599 252.516C214.131 252.516 213.745 252.688 213.441 253.032C213.137 253.376 212.985 253.938 212.985 254.718C212.985 255.418 213.123 255.96 213.399 256.344C213.679 256.728 214.043 256.92 214.491 256.92C214.795 256.92 215.041 256.87 215.229 256.77C215.421 256.67 215.569 256.556 215.673 256.428C215.777 256.296 215.841 256.188 215.865 256.104L215.925 256.308L215.865 256.524C215.845 256.652 215.805 256.804 215.745 256.98C215.685 257.152 215.589 257.322 215.457 257.49C215.329 257.658 215.155 257.798 214.935 257.91C214.715 258.018 214.437 258.072 214.101 258.072ZM215.871 258L215.865 248.664H217.275V258H215.871Z" fill="black"/>
<defs>
<filter id="filter0_d_521_324" x="0" y="0" width="355" height="356" filterUnits="userSpaceOnUse" color-interpolation-filters="sRGB">
<feFlood flood-opacity="0" result="BackgroundImageFix"/>
<feColorMatrix in="SourceAlpha" type="matrix" values="0 0 0 0 0 0 0 0 0 0 0 0 0 0 0 0 0 0 127 0" result="hardAlpha"/>
<feOffset dy="4"/>
<feGaussianBlur stdDeviation="2"/>
<feComposite in2="hardAlpha" operator="out"/>
<feColorMatrix type="matrix" values="0 0 0 0 0 0 0 0 0 0 0 0 0 0 0 0 0 0 0.25 0"/>
<feBlend mode="normal" in2="BackgroundImageFix" result="effect1_dropShadow_521_324"/>
<feBlend mode="normal" in="SourceGraphic" in2="effect1_dropShadow_521_324" result="shape"/>
</filter>
</defs>
</svg>
