<svg width="24" height="24" viewBox="0 0 24 24" fill="none" xmlns="http://www.w3.org/2000/svg">
<circle cx="12" cy="12" r="12" fill="white"/>
<path d="M12 6.26129C13.8691 6.26129 14.0905 6.2684 14.8286 6.30208C15.5111 6.33323 15.8817 6.44726 16.1284 6.5431C16.4551 6.67008 16.6883 6.8218 16.9333 7.06674C17.1782 7.31167 17.3299 7.54489 17.4569 7.8716C17.5527 8.11829 17.6668 8.48893 17.6979 9.1714C17.7316 9.90955 17.7387 10.1309 17.7387 12C17.7387 13.8691 17.7316 14.0905 17.6979 14.8286C17.6668 15.5111 17.5527 15.8817 17.4569 16.1284C17.3299 16.4551 17.1782 16.6884 16.9333 16.9333C16.6883 17.1782 16.4551 17.3299 16.1284 17.4569C15.8817 17.5528 15.5111 17.6668 14.8286 17.698C14.0906 17.7316 13.8692 17.7387 12 17.7387C10.1308 17.7387 9.90941 17.7316 9.1714 17.698C8.48891 17.6668 8.11826 17.5528 7.8716 17.4569C7.54486 17.3299 7.31165 17.1782 7.06671 16.9333C6.82177 16.6884 6.67005 16.4551 6.5431 16.1284C6.44723 15.8817 6.3332 15.5111 6.30205 14.8286C6.26837 14.0905 6.26126 13.8691 6.26126 12C6.26126 10.1309 6.26837 9.90955 6.30205 9.17143C6.3332 8.48893 6.44723 8.11829 6.5431 7.8716C6.67005 7.54489 6.82177 7.31167 7.06671 7.06674C7.31165 6.8218 7.54486 6.67008 7.8716 6.5431C8.11826 6.44726 8.48891 6.33323 9.17137 6.30208C9.90952 6.2684 10.1309 6.26129 12 6.26129ZM12 5C10.0989 5 9.86053 5.00806 9.11391 5.04212C8.36881 5.07614 7.85999 5.19445 7.41471 5.3675C6.95439 5.54639 6.56402 5.78575 6.17487 6.1749C5.78572 6.56405 5.54637 6.95442 5.36748 7.41473C5.19442 7.86001 5.07611 8.36884 5.0421 9.11394C5.00803 9.86053 5 10.0989 5 12C5 13.9011 5.00803 14.1395 5.0421 14.8861C5.07611 15.6312 5.19442 16.14 5.36748 16.5853C5.54637 17.0456 5.78572 17.436 6.17487 17.8251C6.56402 18.2143 6.95439 18.4536 7.41471 18.6325C7.85999 18.8056 8.36881 18.9239 9.11391 18.9579C9.86053 18.992 10.0989 19 12 19C13.9011 19 14.1395 18.992 14.8861 18.9579C15.6312 18.9239 16.14 18.8056 16.5853 18.6325C17.0456 18.4536 17.436 18.2143 17.8251 17.8251C18.2143 17.436 18.4536 17.0456 18.6325 16.5853C18.8055 16.14 18.9239 15.6312 18.9579 14.8861C18.9919 14.1395 19 13.9011 19 12C19 10.0989 18.9919 9.86053 18.9579 9.11394C18.9239 8.36884 18.8055 7.86001 18.6325 7.41473C18.4536 6.95442 18.2143 6.56405 17.8251 6.1749C17.436 5.78575 17.0456 5.54639 16.5853 5.3675C16.14 5.19445 15.6312 5.07614 14.8861 5.04212C14.1395 5.00806 13.9011 5 12 5ZM12 8.40541C10.0147 8.40541 8.40538 10.0148 8.40538 12C8.40538 13.9853 10.0147 15.5946 12 15.5946C13.9852 15.5946 15.5946 13.9853 15.5946 12C15.5946 10.0148 13.9852 8.40541 12 8.40541ZM12 14.3334C10.7113 14.3334 9.66664 13.2887 9.66664 12C9.66664 10.7114 10.7113 9.66667 12 9.66667C13.2886 9.66667 14.3333 10.7114 14.3333 12C14.3333 13.2887 13.2886 14.3334 12 14.3334ZM16.5766 8.26339C16.5766 8.72731 16.2005 9.10341 15.7366 9.10341C15.2727 9.10341 14.8966 8.72731 14.8966 8.26339C14.8966 7.79947 15.2727 7.4234 15.7366 7.4234C16.2005 7.4234 16.5766 7.79947 16.5766 8.26339Z" fill="#1C383C"/>
</svg>
